<?xml version="1.0" encoding="UTF-8" standalone="no"?>
<svg width="214px" height="214px" viewBox="0 0 214 214" version="1.1" xmlns="http://www.w3.org/2000/svg" xmlns:xlink="http://www.w3.org/1999/xlink">
    <!-- Generator: Sketch 40.1 (33804) - http://www.bohemiancoding.com/sketch -->
    <title>logo</title>
    <desc>Created with Sketch.</desc>
    <defs>
        <rect id="path-1" x="-7.10542736e-15" y="0" width="126" height="97"></rect>
    </defs>
    <g id="Page-1" stroke="none" stroke-width="1" fill="none" fill-rule="evenodd">
        <g id="logo-copy" transform="translate(-21.000000, -11.000000)">
            <g id="Group-2" transform="translate(65.000000, 120.000000)">
                <mask id="mask-2" fill="white">
                    <use xlink:href="#path-1"></use>
                </mask>
                <g id="Mask"></g>
                <g mask="url(#mask-2)">
                    <g transform="translate(-10.000000, -27.000000)">
                        <g id="Group" stroke-width="1" fill="none" transform="translate(63.596616, 67.069297) rotate(-330.000000) translate(-63.596616, -67.069297) translate(20.596616, 15.569297)">
                            <path d="M85.6469196,19.0510484 C76.8431015,7.41655203 63.5152475,-8.17124146e-14 48.5980762,-8.17124146e-14 C22.0884082,-8.17124146e-14 0.598076211,23.4227385 0.598076211,52.3161506 C0.598076211,76.3889466 15.5156615,96.6642563 35.824999,102.759685 L56.6938621,12.3667084 L85.6469196,19.0510484 Z" id="Combined-Shape" fill="#006DFF"></path>
                        </g>
                        <path d="M124.959121,34.6976919 C116.155303,23.0631956 102.827449,15.6466435 87.9102776,15.6466435 C61.4006096,15.6466435 39.9102776,39.069382 39.9102776,67.9627941 C39.9102776,92.0355901 54.827863,112.3109 75.1372005,118.406329 L96.0060635,28.013352 L124.959121,34.6976919 Z" id="Combined-Shape" fill="#006DFF" transform="translate(82.434699, 67.026486) scale(-1, 1) rotate(-330.000000) translate(-82.434699, -67.026486) "></path>
                    </g>
                </g>
            </g>
            <path d="M128,191.868229 C154.509668,191.868229 176,156.080507 176,111.934115 C176,67.7877221 154.509668,32 128,32 C101.490332,32 80,67.7877221 80,111.934115 C80,156.080507 101.490332,191.868229 128,191.868229 Z M128,118 C141.254834,118 152,107.254834 152,94 C152,80.745166 141.254834,70 128,70 C114.745166,70 104,80.745166 104,94 C104,107.254834 114.745166,118 128,118 Z" id="Combined-Shape" fill="#006DFF"></path>
            <g id="Group-5" opacity="0" transform="translate(80.000000, 0.000000)" stroke="#FF00FF">
                <ellipse id="Oval-Copy-4" cx="48" cy="48" rx="48" ry="48"></ellipse>
                <ellipse id="Oval-Copy-6" cx="48" cy="96" rx="48" ry="48"></ellipse>
                <ellipse id="Oval-Copy-7" cx="48" cy="176" rx="48" ry="48"></ellipse>
                <ellipse id="Oval-Copy-5" cx="48" cy="144" rx="48" ry="48"></ellipse>
            </g>
        </g>
    </g>
</svg>