<?xml version="1.0" encoding="UTF-8" standalone="no"?>
<svg width="155px" height="40px" viewBox="0 0 155 40" version="1.1" xmlns="http://www.w3.org/2000/svg" xmlns:xlink="http://www.w3.org/1999/xlink">
    <!-- Generator: Sketch 39.1 (31720) - http://www.bohemiancoding.com/sketch -->
    <title>logo</title>
    <desc>Created with Sketch.</desc>
    <defs></defs>
    <g id="Welcome" stroke="none" stroke-width="1" fill="none" fill-rule="evenodd">
        <g id="logo" fill="#000000">
            <path d="M27.2561091,32.5925926 C27.5132374,32.5925926 27.6601679,32.3703704 27.5132374,32.1111111 L22.2604736,21.8518519 C25.1256175,20.7777778 26.9989808,18.2222222 26.9989808,14.9259259 C26.9989808,10.4814815 23.6195804,7.40740741 19.0280036,7.40740741 L9.36732614,7.40740741 C9.14693046,7.40740741 9,7.55555556 9,7.77777778 L9,32.2222222 C9,32.4444444 9.14693046,32.5925926 9.36732614,32.5925926 L12.9671223,32.5925926 C13.187518,32.5925926 13.3344484,32.4444444 13.3344484,32.2222222 L13.3344484,22.6296296 C13.3344484,22.4814815 13.4079137,22.4074074 13.5548441,22.4074074 L17.85256,22.4074074 L22.6277998,32.2222222 C22.7379976,32.4814815 22.8849281,32.5925926 23.178789,32.5925926 L27.2561091,32.5925926 Z M18.8810732,18.4814815 L13.5548441,18.4814815 C13.4079137,18.4814815 13.3344484,18.4074074 13.3344484,18.2592593 L13.3344484,11.5555556 C13.3344484,11.4074074 13.4079137,11.3333333 13.5548441,11.3333333 L18.8810732,11.3333333 C21.1584952,11.3333333 22.701265,12.7407407 22.701265,14.9259259 C22.701265,17.0740741 21.1584952,18.4814815 18.8810732,18.4814815 L18.8810732,18.4814815 Z M37.6187877,33 C41.1818512,33 43.9000647,31.1851852 44.8918452,28.0740741 C45.295904,26.8148148 45.4795671,25.6296296 45.4795671,23.6666667 C45.4795671,21.7037037 45.295904,20.5185185 44.8918452,19.2592593 C43.9000647,16.1481481 41.1818512,14.3333333 37.6187877,14.3333333 C34.0189915,14.3333333 31.3007781,16.1481481 30.3089975,19.2592593 C29.9049387,20.5185185 29.7212757,21.7037037 29.7212757,23.6666667 C29.7212757,25.6296296 29.9049387,26.8148148 30.3089975,28.0740741 C31.3007781,31.1851852 34.0189915,33 37.6187877,33 L37.6187877,33 Z M37.6187877,29.2962963 C35.9658201,29.2962963 34.7903764,28.4444444 34.2761198,26.962963 C33.9822589,26.037037 33.9087937,25.1851852 33.9087937,23.6666667 C33.9087937,22.1481481 33.9822589,21.3333333 34.2761198,20.3703704 C34.7903764,18.8888889 35.9658201,18.037037 37.6187877,18.037037 C39.2717553,18.037037 40.4104663,18.8888889 40.9247229,20.3703704 C41.2185839,21.3333333 41.2920491,22.1481481 41.2920491,23.6666667 C41.2920491,25.1851852 41.2185839,26.037037 40.9247229,26.962963 C40.4104663,28.4444444 39.2717553,29.2962963 37.6187877,29.2962963 L37.6187877,29.2962963 Z M56.283037,33 C58.9277852,33 61.0215442,31.9259259 62.4173835,30.2592593 C62.5275814,30.0740741 62.564314,29.8888889 62.3806509,29.7407407 L60.0664962,27.7037037 C59.8828331,27.5555556 59.6991701,27.5555556 59.5522396,27.7407407 C58.6706569,28.7407407 57.7523415,29.2962963 56.283037,29.2962963 C54.7035346,29.2962963 53.4913583,28.5185185 52.9771017,27 C52.6832408,26.1111111 52.6097756,25.037037 52.6097756,23.6666667 C52.6097756,22.2962963 52.6832408,21.2592593 52.9771017,20.3703704 C53.4913583,18.8148148 54.7035346,18.037037 56.283037,18.037037 C57.7523415,18.037037 58.6706569,18.5925926 59.5522396,19.5925926 C59.6991701,19.7777778 59.8828331,19.8148148 60.0664962,19.6666667 L62.3806509,17.6296296 C62.564314,17.4814815 62.5275814,17.2592593 62.4173835,17.1111111 C61.0215442,15.4074074 58.9277852,14.3333333 56.283037,14.3333333 C52.7199734,14.3333333 50.00176,16.0740741 48.9732468,19.2592593 C48.6059207,20.3703704 48.4222576,21.7777778 48.4222576,23.6666667 C48.4222576,25.5555556 48.6059207,26.962963 48.9732468,28.0740741 C50.00176,31.2592593 52.7199734,33 56.283037,33 L56.283037,33 Z M81.7428199,32.5925926 C81.9632155,32.5925926 82.0366808,32.3703704 81.9264829,32.2222222 L75.4615429,21.6296296 L81.0816328,15.1111111 C81.2285633,14.962963 81.155098,14.7407407 80.9347024,14.7407407 L77.1879757,14.7407407 C76.8941148,14.7407407 76.7104517,14.8518519 76.4900561,15.1111111 L70.4291748,22.2962963 L70.4291748,7.77777778 C70.4291748,7.55555556 70.2822443,7.40740741 70.0618486,7.40740741 L66.6824481,7.40740741 C66.4620525,7.40740741 66.315122,7.55555556 66.315122,7.77777778 L66.315122,32.2222222 C66.315122,32.4444444 66.4620525,32.5925926 66.6824481,32.5925926 L70.0618486,32.5925926 C70.2822443,32.5925926 70.4291748,32.4444444 70.4291748,32.2222222 L70.4291748,27.5185185 L72.8167947,24.7407407 L77.2981736,32.2222222 C77.445104,32.4814815 77.6287671,32.5925926 77.8858954,32.5925926 L81.7428199,32.5925926 Z M92.0320332,33 C95.3012358,33 97.7990536,31.7407407 99.3050907,29.962963 C99.4520212,29.7777778 99.4520212,29.5925926 99.2683581,29.4444444 L97.1011339,27.5185185 C96.9174708,27.3703704 96.7338078,27.4074074 96.5501447,27.5925926 C95.668562,28.5555556 94.3829205,29.2962963 92.3993593,29.2962963 C90.4157982,29.2962963 89.0199588,28.3333333 88.432237,26.5925926 C88.2853065,26.1851852 88.1751087,25.7407407 88.1751087,25.2222222 C88.1751087,25.0740741 88.2485739,25 88.3955044,25 L99.3050907,25 C99.562219,25 99.7091495,24.8518519 99.7091495,24.6296296 C99.7091495,21.7407407 99.5254864,20.5185185 99.1214277,19.2592593 C98.1296471,16.2222222 95.4848989,14.3333333 91.8483701,14.3333333 C88.3220392,14.3333333 85.6038257,16.1481481 84.6120452,19.2592593 C84.244719,20.4074074 84.0243233,21.8148148 84.0243233,23.6666667 C84.0243233,25.5185185 84.2814516,26.8888889 84.6487778,28.037037 C85.6405583,31.1481481 88.2853065,33 92.0320332,33 L92.0320332,33 Z M95.5583641,21.6666667 C95.5583641,21.8148148 95.4848989,21.8888889 95.3379684,21.8888889 L88.3955044,21.8888889 C88.2485739,21.8888889 88.1751087,21.8148148 88.1751087,21.6666667 C88.1751087,21.037037 88.2485739,20.5925926 88.3955044,20.1481481 C88.8730284,18.7037037 90.1954025,17.8518519 91.8851027,17.8518519 C93.5380703,17.8518519 94.8604445,18.7037037 95.3379684,20.1481481 C95.4848989,20.5925926 95.5583641,21.037037 95.5583641,21.6666667 L95.5583641,21.6666667 Z M111.059527,32.8148148 C111.279923,32.8148148 111.426853,32.6666667 111.426853,32.4444444 L111.426853,29.4814815 C111.426853,29.2592593 111.279923,29.1111111 111.059527,29.1111111 L110.141212,29.1111111 C109.002501,29.1111111 108.488244,28.7037037 108.488244,27.4444444 L108.488244,18.1851852 C108.488244,18.037037 108.561709,17.962963 108.70864,17.962963 L111.059527,17.962963 C111.279923,17.962963 111.426853,17.8148148 111.426853,17.5925926 L111.426853,15.1111111 C111.426853,14.8888889 111.279923,14.7407407 111.059527,14.7407407 L108.70864,14.7407407 C108.561709,14.7407407 108.488244,14.6666667 108.488244,14.5185185 L108.488244,9.62962963 C108.488244,9.40740741 108.341314,9.25925926 108.120918,9.25925926 L104.741518,9.25925926 C104.521122,9.25925926 104.374191,9.40740741 104.374191,9.62962963 L104.374191,14.5185185 C104.374191,14.6666667 104.300726,14.7407407 104.153796,14.7407407 L102.978352,14.7407407 C102.757956,14.7407407 102.611026,14.8888889 102.611026,15.1111111 L102.611026,17.5925926 C102.611026,17.8148148 102.757956,17.962963 102.978352,17.962963 L104.153796,17.962963 C104.300726,17.962963 104.374191,18.037037 104.374191,18.1851852 L104.374191,27.5925926 C104.374191,31.0740741 105.733298,32.8148148 109.296362,32.8148148 L111.059527,32.8148148 Z M121.005903,26.8148148 C122.291544,30.9259259 125.450549,33 129.6748,33 C133.678655,33 136.690729,30.9259259 138.123301,27.5925926 C138.196766,27.4074074 138.123301,27.2222222 137.939638,27.1481481 L134.817366,25.6296296 C134.59697,25.5185185 134.413307,25.6296296 134.339842,25.8148148 C133.531724,27.5925926 132.135885,29.0740741 129.6748,29.0740741 C127.28718,29.0740741 125.89134,27.7777778 125.193421,25.7407407 C124.862827,24.7037037 124.752629,23.7037037 124.752629,20 C124.752629,16.2962963 124.862827,15.2962963 125.193421,14.2592593 C125.89134,12.2222222 127.28718,10.9259259 129.6748,10.9259259 C132.135885,10.9259259 133.531724,12.4074074 134.339842,14.1851852 C134.413307,14.3703704 134.59697,14.4814815 134.817366,14.3703704 L137.939638,12.8518519 C138.123301,12.7777778 138.196766,12.5925926 138.123301,12.4074074 C136.690729,9.07407407 133.678655,7 129.6748,7 C125.450549,7 122.291544,9.07407407 121.005903,13.1851852 C120.491646,14.7407407 120.344716,16 120.344716,20 C120.344716,24 120.491646,25.2592593 121.005903,26.8148148 L121.005903,26.8148148 Z M142.200621,32.2222222 C142.200621,32.4444444 142.347552,32.5925926 142.567947,32.5925926 L146.167743,32.5925926 C146.388139,32.5925926 146.53507,32.4444444 146.53507,32.2222222 L146.53507,7.77777778 C146.53507,7.55555556 146.388139,7.40740741 146.167743,7.40740741 L142.567947,7.40740741 C142.347552,7.40740741 142.200621,7.55555556 142.200621,7.77777778 L142.200621,32.2222222 Z" id="Rocket-CI-Copy"></path>
        </g>
    </g>
</svg>